<svg xmlns="http://www.w3.org/2000/svg" xmlns:xlink="http://www.w3.org/1999/xlink" width="2500" height="500" viewBox="0 0 2500 500"><defs><linearGradient id="a"><stop offset="0" stop-color="#ffab00"/><stop offset=".206" stop-color="orange"/><stop offset=".247" stop-color="#ffab00"/><stop offset="1" stop-color="#f80"/></linearGradient><radialGradient id="b" r="60%" fx="50%" fy="50%" spreadMethod="pad" xlink:href="#a"/><filter id="c" color-interpolation-filters="sRGB"><feGaussianBlur result="result1" stdDeviation="3"/><feBlend in="result1" in2="result1" mode="multiply" result="result5"/><feGaussianBlur in="result5" result="result6" stdDeviation="1"/><feComposite in="result6" in2="result5" operator="xor" result="result8"/><feComposite in="result6" in2="result8" operator="xor" result="fbSourceGraphic"/><feSpecularLighting in="fbSourceGraphic" lighting-color="#fff" result="result1" specularConstant="2.2" specularExponent="55" surfaceScale="2"><fePointLight x="-5000" y="-10000" z="20000"/></feSpecularLighting><feComposite in="result1" in2="fbSourceGraphic" operator="in" result="result2"/><feComposite in="fbSourceGraphic" in2="result2" k2="2" k3="1" operator="arithmetic" result="result4"/><feComposite in="result4" in2="result4" operator="in" result="result91"/><feBlend in2="result91" mode="darken"/></filter></defs><g stroke="#000"><path fill="url(#b)" stroke-linecap="round" stroke-linejoin="round" stroke-width="15.68" d="M250.418 3.158L23.301 126.238l-.42 246.84 226.701 123.764 227.117-123.08.42-246.84zm-.711 97.865v.006c3.78 0 7.604.297 11.457.875 41.101 6.166 72.183 40.64 66.384 70.457-5.798 29.816-33.28 55.978-40.085 61.672-6.805 5.695 37.096 164.944 37.096 164.944h-149.12s46.181-156.802 36.486-164.944c-9.695-8.142-41.197-36.872-36.388-68.935 4.81-32.064 37.627-63.975 74.17-64.074z" filter="url(#c)" transform="matrix(.95665 0 0 .95665 10.837 10.837)"/><text x="1510.89" y="949.388" fill="#ff920f" stroke-width="7" filter="url(#c)" font-family="sans-serif" font-size="28.614" style="line-height:125%" font-weight="400" letter-spacing="0" transform="translate(0 -552.362)" word-spacing="0"><tspan style="-inkscape-font-specification:Arial;text-align:center" x="1510.89" y="949.388" dx="0" font-family="Arial" font-size="412.044" letter-spacing="-2.15" rotate="0 0 0 0 0 0 0 0 0 0 0" text-anchor="middle"><tspan letter-spacing="0"><tspan letter-spacing="-10">P</tspan><tspan letter-spacing="10">r</tspan><tspan letter-spacing="7">i</tspan><tspan letter-spacing="-7">v</tspan><tspan letter-spacing="-5">a</tspan><tspan letter-spacing="5">t</tspan><tspan letter-spacing="15">e</tspan>Bin</tspan></tspan></text></g></svg>