<svg xmlns="http://www.w3.org/2000/svg" xmlns:xlink="http://www.w3.org/1999/xlink" width="79" height="72" version="1.1" viewBox="0 0 79 72"><title>archives</title><desc>Created with Sketch.</desc><g id="Page-1" fill="none" fill-rule="evenodd" stroke="none" stroke-width="1"><g id="png" transform="translate(-399.000000, -139.000000)"><g id="Archives-icons" transform="translate(43.000000, 139.000000)"><g id="archives" transform="translate(356.000000, 0.000000)"><g id="Group-3"><rect id="Rectangle-6" width="58.639" height="58.247" x="0" y="13.753" fill="#DE9F67"/><polygon id="Rectangle-6-Copy-2" fill="#CF925C" points="58.639 13.753 78.401 .058 78.401 56.508 58.639 72"/><polygon id="Rectangle-6-Copy" fill="#FABE88" points="19.877 0 78.516 0 58.639 13.753 0 13.753"/></g><g id="zip" transform="translate(8.958763, 14.325843)"><rect id="Rectangle" width="8.144" height="33.978" x="0" y="0" fill="#3E3E3E"/><rect id="Path" width="2.443" height="2.427" x="3.258" y="29.933" fill="#F4F4F4"/><rect id="Path" width="2.443" height="2.427" x="3.258" y="10.517" fill="#F4F4F4"/><g id="Group" fill="#B1B1B1" transform="translate(3.257732, 0.000000)"><rect id="Path" width="2.443" height="4.854" x="0" y="3.236"/><polygon id="Path" points="2.419 .809 4.887 .809 2.635 4.854 1.629 4.7" transform="translate(3.257732, 2.831461) rotate(25.000000) translate(-3.257732, -2.831461)"/></g><rect id="Path" width="2.443" height="2.427" x="3.258" y="15.371" fill="#F4F4F4"/><rect id="Path" width="2.443" height="2.427" x="3.258" y="20.225" fill="#F4F4F4"/><rect id="Path" width="2.443" height="2.427" x="3.258" y="25.079" fill="#F4F4F4"/></g></g></g></g></g></svg>