<svg xmlns="http://www.w3.org/2000/svg" xmlns:xlink="http://www.w3.org/1999/xlink" width="71" height="93" version="1.1" viewBox="0 0 71 93"><title>default</title><desc>Created with Sketch.</desc><g id="Page-1" fill="none" fill-rule="evenodd" stroke="none" stroke-width="1"><g id="png" transform="translate(-388.000000, -1088.000000)"><g id="files" transform="translate(43.000000, 230.000000)"><g id="default" transform="translate(345.000000, 858.000000)"><path id="Rectangle-2" fill="#1D2F44" d="M3,0 L55.7339131,0 L71,18.640625 L71,90 C71,91.6568542 69.6568542,93 68,93 L3,93 C1.34314575,93 2.02906125e-16,91.6568542 0,90 L0,3 C-2.02906125e-16,1.34314575 1.34314575,3.04359188e-16 3,0 Z"/><path id="Rectangle-2-Copy" fill="#3A6291" d="M56.1679688,0.083984375 L56.1679688,15.6293945 C56.1679688,17.2862488 57.5111145,18.6293945 59.1679688,18.6293945 L71.0048828,18.6293945 L56.1679688,0.083984375 Z"/><rect id="Rectangle-4" width="58" height="8" x="8" y="24" fill="#B8E986" rx="3"/><rect id="Rectangle-4-Copy-2" width="58" height="8" x="8" y="54" fill="#B8E986" rx="3"/><rect id="Rectangle-4-Copy" width="41" height="8" x="8" y="39" fill="#B8E986" rx="3"/><rect id="Rectangle-4-Copy-3" width="41" height="8" x="8" y="69" fill="#B8E986" rx="3"/></g></g></g></g></svg>