<svg xmlns="http://www.w3.org/2000/svg" xmlns:xlink="http://www.w3.org/1999/xlink" width="81" height="93" version="1.1" viewBox="0 0 81 93"><title>eps</title><desc>Created with Sketch.</desc><g id="Page-1" fill="none" fill-rule="evenodd" stroke="none" stroke-width="1"><g id="png" transform="translate(-478.000000, -981.000000)"><g id="files" transform="translate(43.000000, 230.000000)"><g id="eps" transform="translate(435.000000, 751.000000)"><path id="Rectangle-2" fill="#E6F2FF" d="M13,0 L65.7339131,0 L81,18.640625 L81,90 C81,91.6568542 79.6568542,93 78,93 L13,93 C11.3431458,93 10,91.6568542 10,90 L10,3 C10,1.34314575 11.3431458,3.04359188e-16 13,0 Z"/><path id="Rectangle-2-Copy" fill="#AEC3DA" d="M66.1679688,0.083984375 L66.1679688,15.6293945 C66.1679688,17.2862488 67.5111145,18.6293945 69.1679688,18.6293945 L81.0048828,18.6293945 L66.1679688,0.083984375 Z"/><rect id="Rectangle-3" width="66" height="32" x="0" y="53" fill="#4A4A4A" rx="3"/><path id="AI" fill="#F5A623" d="M28.71,59.424 L31.548,59.424 L38.324,75 L34.452,75 L33.11,71.7 L27.06,71.7 L25.762,75 L21.978,75 L28.71,59.424 Z M30.03,63.956 L28.138,68.796 L31.944,68.796 L30.03,63.956 Z M39.842,59.424 L43.274,59.424 L43.274,75 L39.842,75 L39.842,59.424 Z"/></g></g></g></g></svg>