<svg xmlns="http://www.w3.org/2000/svg" xmlns:xlink="http://www.w3.org/1999/xlink" width="98" height="77" version="1.1" viewBox="0 0 98 77"><title>folder-home</title><desc>Created with Sketch.</desc><g id="Page-1" fill="none" fill-rule="evenodd" stroke="none" stroke-width="1"><g id="png" transform="translate(-380.000000, -38.000000)"><g id="folder-icons" transform="translate(43.000000, 38.000000)"><g id="folder-home" transform="translate(337.000000, 0.000000)"><rect id="Rectangle" width="88" height="73" x="5" y="4" fill="#2C6EBB" rx="3"/><rect id="Rectangle-Copy-2" width="35" height="29" x="5" y="0" fill="#2C6EBB" rx="3"/><path id="Rectangle-Copy" fill="#4A90E2" d="M3.61754313,9 L94.382472,9 C96.2164264,9 97.6028703,10.4497446 97.4791811,12.2380952 L93.2239591,73.7619048 C93.1002699,75.5502554 91.6568542,77 90,77 L8,77 C6.34314575,77 4.89973044,75.5502554 4.77604167,73.7619048 L0.520833333,12.2380952 C0.397144561,10.4497446 1.78358876,9 3.61754313,9 Z"/><polygon id="Triangle" fill="#104A8D" points="49.664 20.324 78.467 36.484 68.773 36.484 68.773 63 52.419 63 52.419 49.33 43.137 49.33 43.137 63 30.148 63 30.148 36.484 20.86 36.484"/></g></g></g></g></svg>