<svg xmlns="http://www.w3.org/2000/svg" xmlns:xlink="http://www.w3.org/1999/xlink" width="67" height="70" version="1.1" viewBox="0 0 67 70"><title>video</title><desc>Created with Sketch.</desc><g id="Page-1" fill="none" fill-rule="evenodd" stroke="none" stroke-width="1"><g id="png" transform="translate(-482.000000, -1460.000000)"><g id="icons" transform="translate(386.000000, 1460.000000)"><g id="video" transform="translate(96.000000, 0.000000)"><rect id="Rectangle" width="54" height="70" x="7" y="0" fill="#D8D8D8"/><g id="Group"><rect id="Rectangle" width="6.646" height="70" x="0" y="0" fill="#4A4A4A"/><rect id="Rectangle" width="6.646" height="70" x="13.292" y="0" fill="#4A4A4A"/><rect id="Rectangle" width="6.646" height="70" x="6.646" y="0" fill="#4A4A4A"/><rect id="Rectangle-2" width="6.646" height="7" x="6.646" y="7" fill="#FFF"/><rect id="Rectangle-2" width="6.646" height="7" x="6.646" y="21" fill="#FFF"/><rect id="Rectangle-2" width="6.646" height="7" x="6.646" y="35" fill="#FFF"/><rect id="Rectangle-2" width="6.646" height="7" x="6.646" y="49" fill="#FFF"/><rect id="Rectangle-2" width="6.646" height="7" x="6.646" y="63" fill="#FFF"/></g><g id="Group" transform="translate(47.000000, 0.000000)"><rect id="Rectangle" width="6.646" height="70" x="0" y="0" fill="#4A4A4A"/><rect id="Rectangle" width="6.646" height="70" x="13.292" y="0" fill="#4A4A4A"/><rect id="Rectangle" width="6.646" height="70" x="6.646" y="0" fill="#4A4A4A"/><rect id="Rectangle-2" width="6.646" height="7" x="6.646" y="7" fill="#FFF"/><rect id="Rectangle-2" width="6.646" height="7" x="6.646" y="21" fill="#FFF"/><rect id="Rectangle-2" width="6.646" height="7" x="6.646" y="35" fill="#FFF"/><rect id="Rectangle-2" width="6.646" height="7" x="6.646" y="49" fill="#FFF"/><rect id="Rectangle-2" width="6.646" height="7" x="6.646" y="63" fill="#FFF"/></g></g></g></g></g></svg>